<?xml version="1.0" encoding="utf-8"?>
<!-- Generator: Adobe Illustrator 19.1.0, SVG Export Plug-In . SVG Version: 6.00 Build 0)  -->
<svg version="1.1" id="Layer_1" xmlns="http://www.w3.org/2000/svg" xmlns:xlink="http://www.w3.org/1999/xlink" x="0px" y="0px"
	 viewBox="0 0 940 940" style="enable-background:new 0 0 940 940;" xml:space="preserve">
<style type="text/css">
	.st0{fill-rule:evenodd;clip-rule:evenodd;fill:#FF8800;}
</style>
<g>
	<path class="st0" d="M470.5,938.7c-228.6,0-414-185.4-414-414c0-132.2,62-250,158.5-325.8v-1.6h2.1c70-54.3,157.9-86.6,253.4-86.6
		c228.6,0,414,185.4,414,414C884.5,753.4,699.1,938.7,470.5,938.7L470.5,938.7z M148,524.3c0,162.2,120,296.4,276,318.7V316.3H224.2
		C176.7,372.4,148,445,148,524.3L148,524.3z M715.8,316.3H516V843c156-22.3,276-156.5,276-318.7C792,445,763.3,372.4,715.8,316.3
		L715.8,316.3z"/>
	<path class="st0" d="M678.3,66.5c-7.9,13.7-22.1,21.4-36.8,21.7l-131.6,228l-39.8-23L602,64.7c-6.5-12.7-6.7-28.4,1-41.7
		c12-20.8,38.6-27.9,59.4-15.9C683.2,19.1,690.3,45.7,678.3,66.5L678.3,66.5z M430.1,316.5l-131.6-228c-14.7-0.3-28.9-8.1-36.8-21.7
		c-12-20.8-4.9-47.4,15.9-59.4c20.8-12,47.4-4.9,59.4,15.9c7.7,13.3,7.5,29,1,41.7l132,228.5L430.1,316.5L430.1,316.5z"/>
	<path class="st0" d="M198,270.3c-38.2,40.9-67.3,90.4-84.1,145.3l-81.6-47.1c19.1-53.7,47.8-102.8,84-145.3L198,270.3L198,270.3z
		 M197.6,778.5l-81.2,46.9c-36.2-42.5-64.9-91.6-84-145.3l81.5-47C130.4,688,159.4,737.6,197.6,778.5L197.6,778.5z M97.7,524.6
		c0,28.7,3.3,56.7,9.4,83.6H13c-5-27.2-7.6-55.3-7.6-83.9c0-28.7,2.6-56.7,7.6-83.9h94.2C101,467.5,97.7,495.7,97.7,524.6
		L97.7,524.6z M907.7,680.2c-19.1,53.7-47.8,102.8-84,145.3l-80.8-46.7c38.2-40.9,67.2-90.4,83.9-145.3L907.7,680.2L907.7,680.2z
		 M907.7,368.4l-81.1,46.8c-16.8-54.9-46-104.3-84.2-145.2l81.2-46.9C859.9,265.7,888.6,314.8,907.7,368.4L907.7,368.4z
		 M842.9,524.6c0-29-3.3-57.2-9.6-84.3H927c5,27.2,7.6,55.3,7.6,83.9c0,28.7-2.6,56.7-7.6,83.9h-93.4
		C839.7,581.4,842.9,553.4,842.9,524.6L842.9,524.6z"/>
</g>
</svg>
