<?xml version="1.0" encoding="utf-8"?>
<!-- Generator: Adobe Illustrator 19.1.0, SVG Export Plug-In . SVG Version: 6.00 Build 0)  -->
<svg version="1.1" id="Layer_1" xmlns="http://www.w3.org/2000/svg" xmlns:xlink="http://www.w3.org/1999/xlink" x="0px" y="0px"
	 viewBox="-235.9 531.5 324.9 122.3" style="enable-background:new -235.9 531.5 324.9 122.3;" xml:space="preserve">
<style type="text/css">
	.st0{fill:#FF8800;}
	.st1{fill:#FFFFFF;}
</style>
<path class="st0" d="M-117.6,574.2c-1.4,0-2.7,0.4-3.8,1.3c-0.9,0.7-1.4,1.8-1.4,2.7c0,1.1,0.4,2,1.1,2.9c0.9,1.3,3.8,3.8,8.5,7.8
	c4.3,3.6,7,6,7.9,7c2.3,2.3,4,4.7,5.1,6.7c1.1,2.2,1.4,4.5,1.4,7c0,5.1-1.8,9-5.1,12.3c-3.4,3.2-7.9,4.9-13.4,4.9
	c-4.3,0-7.9-1.1-11.2-3.2c-3.2-2.2-6-5.4-8.1-9.9l9.6-5.8c2.9,5.4,6.3,7.9,9.9,7.9c2,0,3.6-0.5,5.1-1.8c1.4-1.3,2-2.5,2-4
	c0-1.4-0.5-2.7-1.4-4.2c-0.9-1.4-3.2-3.4-6.7-6.3c-6.5-5.4-10.8-9.6-12.8-12.5c-2-2.9-2.9-5.8-2.9-8.7c0-4.2,1.6-7.8,4.7-10.8
	c3.2-3.1,7-4.5,11.7-4.5c3.1,0,6,0.7,8.7,2.2c2.7,1.4,5.6,4,8.8,7.6l-8.5,7.6C-111.5,576.2-114.6,574.2-117.6,574.2L-117.6,574.2z
	 M-71.6,576v49.1h-11.6V576h-10.7v-11.4h33.2V576H-71.6L-71.6,576z M-7.3,608.5c-1.4,4-3.6,7.2-6.3,9.7s-5.6,4.3-8.8,5.4
	c-3.2,1.1-8.7,1.4-16.4,1.4h-13.7v-60.4H-39c8.7,0,15.2,1.1,19.5,3.2c4.3,2.1,7.8,5.8,10.5,10.7s4.2,10.7,4.2,17.2
	C-5,600.4-5.7,604.7-7.3,608.5L-7.3,608.5z M-21.9,580.5c-3.2-3.2-8.5-4.7-15.5-4.7h-4v38.1h5.2c5.2,0,9-0.5,11.4-1.8
	c2.3-1.3,4.3-3.2,5.8-6.1c1.4-2.9,2.2-6.3,2.2-10.5C-16.5,589-18.3,583.9-21.9,580.5L-21.9,580.5z M5.1,625.1v-60.5h11.4v60.5H5.1
	L5.1,625.1z M79.9,617.3c-6,6.1-13.4,9.2-22,9.2c-9,0-16.6-3.1-22.6-9.4c-6-6.3-9-13.7-9-22.4c0-5.8,1.4-11,4.2-15.9
	c2.7-4.9,6.7-8.7,11.6-11.6s10.1-4.3,15.7-4.3c8.5,0,15.9,3.1,22,9.2c6.1,6.1,9.2,13.7,9.2,22.7C89.1,603.8,86,611.4,79.9,617.3
	L79.9,617.3z M71.8,580.3c-3.8-4-8.5-6-14.1-6s-10.3,2-14.1,5.8c-3.8,4-5.8,8.8-5.8,14.8c0,6.7,2.3,11.9,7.2,15.9
	c3.8,3.1,7.9,4.5,12.8,4.5c5.4,0,10.1-2,13.9-6s5.8-8.8,5.8-14.6C77.5,589.2,75.6,584.3,71.8,580.3L71.8,580.3z"/>
<path class="st0" d="M-149.3,592.3c0,7.1-5.5,17.9-9.4,17.9l0,0c-5.8,24-19,43.6-34.1,43.6c-15.2,0-28-19.5-33.6-43.6h-0.1
	c-3.9,0-9.4-10.8-9.4-17.9s2.6-7.9,6.5-7.9c0-34.1,16.2-52.9,36.6-52.9s37.2,18.7,37.2,52.9l0,0
	C-151.9,584.5-149.3,585.4-149.3,592.3L-149.3,592.3z"/>
<path class="st1" d="M-190.9,561.1c0-0.2,0-0.4,0-0.5l2.7-1.1c-0.1-1.2-0.3-2.3-0.7-3.4h-2.9c-0.1-0.4-0.3-0.7-0.4-1l2.1-2.1
	c-0.5-1-1.2-2-1.9-2.9l-2.7,1.1c-0.3-0.3-0.5-0.5-0.8-0.8l1.2-2.7c-0.9-0.7-1.8-1.4-2.9-1.9l-2.1,2.1c-0.3-0.2-0.7-0.3-1-0.4v-2.9
	c-1.1-0.3-2.2-0.6-3.4-0.7l-1.1,2.7c-0.2,0-0.4,0-0.6,0s-0.4,0-0.5,0l-1.1-2.7c-1.2,0.1-2.3,0.3-3.4,0.7v2.9c-0.4,0.1-0.7,0.3-1,0.4
	l-2.1-2.1c-1,0.5-2,1.2-2.9,1.9l1.1,2.7c-0.3,0.3-0.5,0.5-0.8,0.8l-2.7-1.2c-0.7,0.9-1.4,1.8-1.9,2.9l2.1,2.1
	c-0.2,0.3-0.3,0.7-0.4,1h-2.9c-0.3,1.1-0.6,2.2-0.7,3.4l2.7,1.1c0,0.2,0,0.4,0,0.6c0,0.2,0,0.4,0,0.5l-2.7,1.1
	c0.1,1.2,0.3,2.3,0.7,3.4h2.9c0.1,0.4,0.3,0.7,0.4,1l-2.1,2.1c0.5,1,1.2,2,1.9,2.9l2.7-1.1c0.3,0.3,0.5,0.5,0.8,0.8l-1.2,2.7
	c0.9,0.7,1.8,1.4,2.9,1.9l2.1-2.1c0.3,0.2,0.7,0.3,1,0.4v2.9c1.1,0.3,2.2,0.6,3.4,0.7l1.1-2.7c0.2,0,0.4,0,0.6,0s0.4,0,0.5,0
	l1.1,2.7c1.2-0.1,2.3-0.3,3.4-0.7v-2.9c0.4-0.1,0.7-0.3,1-0.4l2.1,2.1c1-0.5,2-1.2,2.9-1.9l-1.1-2.7c0.3-0.3,0.5-0.5,0.8-0.8
	l2.7,1.2c0.7-0.9,1.4-1.8,1.9-2.9l-2.1-2.1c0.2-0.3,0.3-0.7,0.4-1h2.9c0.3-1.1,0.6-2.2,0.7-3.4l-2.7-1.1
	C-190.9,561.4-190.9,561.3-190.9,561.1z M-205.3,572.7c-6.4,0-11.7-5.2-11.7-11.7c0-6.4,5.2-11.7,11.7-11.7
	c6.5,0,11.7,5.2,11.7,11.7C-193.7,567.5-198.9,572.7-205.3,572.7z"/>
<path class="st1" d="M-164,587.1c0-0.2,0-0.3,0-0.5l2.5-1c-0.1-1.1-0.3-2.1-0.6-3.1h-2.7c-0.1-0.3-0.3-0.6-0.4-1l1.9-1.9
	c-0.5-0.9-1.1-1.8-1.8-2.6l-2.5,1.1c-0.2-0.3-0.5-0.5-0.7-0.7l1.1-2.5c-0.8-0.7-1.7-1.3-2.6-1.8l-1.9,1.9c-0.3-0.1-0.6-0.3-0.9-0.4
	v-2.7c-1-0.3-2-0.5-3.1-0.6l-1,2.5c-0.2,0-0.4,0-0.5,0c-0.2,0-0.3,0-0.5,0l-1-2.5c-1.1,0.1-2.1,0.3-3.1,0.6v2.7
	c-0.3,0.1-0.6,0.3-1,0.4l-1.9-1.9c-0.9,0.5-1.8,1.1-2.6,1.8l1.1,2.5c-0.3,0.2-0.5,0.5-0.7,0.7l-2.5-1.1c-0.7,0.8-1.3,1.7-1.8,2.6
	l1.9,1.9c-0.1,0.3-0.3,0.6-0.4,0.9h-2.7c-0.3,1-0.5,2-0.6,3.1l2.5,1c0,0.2,0,0.4,0,0.5c0,0.2,0,0.3,0,0.5l-2.5,1
	c0.1,1.1,0.3,2.1,0.6,3.1h2.7c0.1,0.3,0.3,0.6,0.4,1l-1.9,1.9c0.5,0.9,1.1,1.8,1.8,2.6l2.5-1.1c0.2,0.3,0.5,0.5,0.7,0.7l-1.1,2.5
	c0.8,0.7,1.7,1.3,2.6,1.8l1.9-1.9c0.3,0.1,0.6,0.3,0.9,0.4v2.7c1,0.3,2,0.5,3.1,0.6l1-2.5c0.2,0,0.4,0,0.5,0c0.2,0,0.3,0,0.5,0
	l1,2.5c1.1-0.1,2.1-0.3,3.1-0.6v-2.7c0.3-0.1,0.6-0.3,1-0.4l1.9,1.9c0.9-0.5,1.8-1.1,2.6-1.8l-1.1-2.5c0.3-0.2,0.5-0.5,0.7-0.7
	l2.5,1.1c0.7-0.8,1.3-1.7,1.8-2.6l-1.9-1.9c0.1-0.3,0.3-0.6,0.4-0.9h2.7c0.3-1,0.5-2,0.6-3.1l-2.5-1C-164,587.4-164,587.3-164,587.1
	z M-177.3,597.8c-5.9,0-10.7-4.8-10.7-10.7s4.8-10.7,10.7-10.7c5.9,0,10.7,4.8,10.7,10.7C-166.6,593-171.4,597.8-177.3,597.8z"/>
<path class="st1" d="M-164.4,558.8c0-0.1,0-0.3,0-0.4l1.9-0.8c-0.1-0.8-0.2-1.6-0.5-2.4h-2.1c-0.1-0.2-0.2-0.5-0.3-0.7l1.5-1.4
	c-0.4-0.7-0.8-1.4-1.3-2l-1.9,0.8c-0.2-0.2-0.4-0.4-0.6-0.6l0.8-1.9c-0.6-0.5-1.3-1-2-1.3l-1.5,1.5c-0.2-0.1-0.5-0.2-0.7-0.3v-2.1
	c-0.8-0.2-1.5-0.4-2.4-0.5l-0.8,1.9c-0.1,0-0.3,0-0.4,0c-0.1,0-0.3,0-0.4,0l-0.8-1.9c-0.8,0.1-1.6,0.2-2.4,0.5v2.1
	c-0.2,0.1-0.5,0.2-0.7,0.3l-1.4-1.5c-0.7,0.4-1.4,0.8-2,1.3l0.8,1.9c-0.2,0.2-0.4,0.4-0.6,0.6l-1.9-0.8c-0.5,0.6-1,1.3-1.3,2
	l1.5,1.5c-0.1,0.2-0.2,0.5-0.3,0.7h-2.1c-0.2,0.8-0.4,1.5-0.5,2.4l1.9,0.8c0,0.1,0,0.3,0,0.4c0,0.1,0,0.3,0,0.4l-1.9,0.8
	c0.1,0.8,0.2,1.6,0.5,2.4h2.1c0.1,0.2,0.2,0.5,0.3,0.7l-1.5,1.4c0.4,0.7,0.8,1.4,1.3,2l1.9-0.8c0.2,0.2,0.4,0.4,0.6,0.6l-0.8,1.9
	c0.6,0.5,1.3,1,2,1.3l1.5-1.5c0.2,0.1,0.5,0.2,0.7,0.3v2.1c0.8,0.2,1.5,0.4,2.4,0.5l0.8-1.9c0.1,0,0.3,0,0.4,0c0.1,0,0.3,0,0.4,0
	l0.8,1.9c0.8-0.1,1.6-0.2,2.4-0.5v-2.1c0.2-0.1,0.5-0.2,0.7-0.3l1.4,1.5c0.7-0.4,1.4-0.8,2-1.3l-0.8-1.9c0.2-0.2,0.4-0.4,0.6-0.6
	l1.9,0.8c0.5-0.6,1-1.3,1.3-2l-1.5-1.5c0.1-0.2,0.2-0.5,0.3-0.7h2.1c0.2-0.8,0.4-1.5,0.5-2.4l-1.9-0.8
	C-164.4,559.1-164.4,559-164.4,558.8z M-174.5,567c-4.5,0-8.2-3.7-8.2-8.2s3.7-8.2,8.2-8.2s8.2,3.7,8.2,8.2S-170,567-174.5,567z"/>
<path class="st1" d="M-180.3,542.3c0-0.1,0-0.2,0-0.3l1.3-0.5c-0.1-0.6-0.2-1.1-0.3-1.6h-1.4c-0.1-0.2-0.1-0.3-0.2-0.5l1-1
	c-0.3-0.5-0.6-0.9-0.9-1.4l-1.3,0.5c-0.1-0.1-0.2-0.3-0.4-0.4l0.6-1.3c-0.4-0.4-0.9-0.7-1.4-0.9l-1,1c-0.2-0.1-0.3-0.1-0.5-0.2v-1.4
	c-0.5-0.2-1.1-0.3-1.6-0.3l-0.5,1.3c-0.1,0-0.2,0-0.3,0c-0.1,0-0.2,0-0.3,0l-0.5-1.3c-0.6,0.1-1.1,0.2-1.6,0.3v1.4
	c-0.2,0.1-0.3,0.1-0.5,0.2l-1-1c-0.5,0.3-0.9,0.6-1.4,0.9l0.5,1.3c-0.1,0.1-0.3,0.2-0.4,0.4l-1.3-0.6c-0.4,0.4-0.7,0.9-0.9,1.4l1,1
	c-0.1,0.2-0.1,0.3-0.2,0.5h-1.4c-0.2,0.5-0.3,1.1-0.3,1.6l1.3,0.5c0,0.1,0,0.2,0,0.3c0,0.1,0,0.2,0,0.3l-1.3,0.5
	c0.1,0.6,0.2,1.1,0.3,1.6h1.4c0.1,0.2,0.1,0.3,0.2,0.5l-1,1c0.3,0.5,0.6,0.9,0.9,1.4l1.3-0.5c0.1,0.1,0.2,0.3,0.4,0.4l-0.6,1.3
	c0.4,0.4,0.9,0.7,1.4,0.9l1-1c0.2,0.1,0.3,0.1,0.5,0.2v1.4c0.5,0.2,1.1,0.3,1.6,0.3l0.5-1.3c0.1,0,0.2,0,0.3,0s0.2,0,0.3,0l0.5,1.3
	c0.6-0.1,1.1-0.2,1.6-0.3v-1.4c0.2-0.1,0.3-0.1,0.5-0.2l1,1c0.5-0.3,0.9-0.6,1.4-0.9l-0.5-1.3c0.1-0.1,0.3-0.2,0.4-0.4l1.3,0.6
	c0.4-0.4,0.7-0.9,0.9-1.4l-1-1c0.1-0.2,0.1-0.3,0.2-0.5h1.4c0.2-0.5,0.3-1.1,0.3-1.6l-1.3-0.5C-180.3,542.5-180.3,542.4-180.3,542.3
	z M-187.2,547.9c-3.1,0-5.6-2.5-5.6-5.6s2.5-5.6,5.6-5.6c3.1,0,5.6,2.5,5.6,5.6S-184.1,547.9-187.2,547.9z"/>
</svg>
