<?xml version="1.0" encoding="utf-8"?>
<!-- Generator: Adobe Illustrator 19.1.0, SVG Export Plug-In . SVG Version: 6.00 Build 0)  -->
<svg version="1.1" id="Layer_1" xmlns="http://www.w3.org/2000/svg" xmlns:xlink="http://www.w3.org/1999/xlink" x="0px" y="0px"
	 viewBox="-258 507.4 725 124" style="enable-background:new -258 507.4 725 124;" xml:space="preserve">
<style type="text/css">
	.st0{fill:#FFFFFF;}
	.st1{fill:#002233;}
</style>
<g id="HEAD">
	<path class="st0" d="M-170.2,569.1c0,7.2-5.6,18.1-9.5,18.1l0,0c-5.9,24.3-19.3,44.2-34.6,44.2c-15.4,0-28.4-19.8-34.1-44.2h-0.1
		c-4,0-9.5-11-9.5-18.1c0-7.2,2.6-8,6.6-8c0-34.6,16.4-53.6,37.1-53.6s37.7,19,37.7,53.6l0,0C-172.8,561.1-170.2,562.1-170.2,569.1
		L-170.2,569.1z"/>
	<path class="st1" d="M-212.4,537.4c0-0.2,0-0.4,0-0.5l2.7-1.1c-0.1-1.2-0.3-2.3-0.7-3.4h-2.9c-0.1-0.4-0.3-0.7-0.4-1l2.1-2.1
		c-0.5-1-1.2-2-1.9-2.9l-2.7,1.1c-0.3-0.3-0.5-0.5-0.8-0.8l1.2-2.7c-0.9-0.7-1.8-1.4-2.9-1.9l-2.1,2.1c-0.3-0.2-0.7-0.3-1-0.4v-2.9
		c-1.1-0.3-2.2-0.6-3.4-0.7l-1.1,2.7c-0.2,0-0.4,0-0.6,0c-0.2,0-0.4,0-0.5,0l-1.1-2.7c-1.2,0.1-2.3,0.3-3.4,0.7v2.9
		c-0.4,0.1-0.7,0.3-1,0.4l-2.1-2.1c-1,0.5-2,1.2-2.9,1.9l1.1,2.7c-0.3,0.3-0.5,0.5-0.8,0.8l-2.7-1.2c-0.7,0.9-1.4,1.8-1.9,2.9
		l2.1,2.1c-0.2,0.3-0.3,0.7-0.4,1h-2.9c-0.3,1.1-0.6,2.2-0.7,3.4l2.7,1.1c0,0.2,0,0.4,0,0.6c0,0.2,0,0.4,0,0.5l-2.7,1.1
		c0.1,1.2,0.3,2.3,0.7,3.4h2.9c0.1,0.4,0.3,0.7,0.4,1l-2.1,2.1c0.5,1,1.2,2,1.9,2.9l2.7-1.1c0.3,0.3,0.5,0.5,0.8,0.8l-1.2,2.7
		c0.9,0.7,1.8,1.4,2.9,1.9l2.1-2.1c0.3,0.2,0.7,0.3,1,0.4v2.9c1.1,0.3,2.2,0.6,3.4,0.7l1.1-2.7c0.2,0,0.4,0,0.6,0c0.2,0,0.4,0,0.5,0
		l1.1,2.7c1.2-0.1,2.3-0.3,3.4-0.7v-2.9c0.4-0.1,0.7-0.3,1-0.4l2.1,2.1c1-0.5,2-1.2,2.9-1.9l-1.1-2.7c0.3-0.3,0.5-0.5,0.8-0.8
		l2.7,1.2c0.7-0.9,1.4-1.8,1.9-2.9l-2.1-2.1c0.2-0.3,0.3-0.7,0.4-1h2.9c0.3-1.1,0.6-2.2,0.7-3.4l-2.7-1.1
		C-212.4,537.7-212.4,537.6-212.4,537.4z M-227,549.2c-6.5,0-11.9-5.3-11.9-11.9c0-6.5,5.3-11.9,11.9-11.9s11.9,5.3,11.9,11.9
		C-215.2,543.9-220.5,549.2-227,549.2z"/>
	<path class="st1" d="M-185.1,563.8c0-0.2,0-0.3,0-0.5l2.5-1c-0.1-1.1-0.3-2.1-0.6-3.1h-2.7c-0.1-0.3-0.3-0.6-0.4-1l1.9-1.9
		c-0.5-0.9-1.1-1.8-1.8-2.6l-2.5,1.1c-0.2-0.3-0.5-0.5-0.7-0.7l1.1-2.5c-0.8-0.7-1.7-1.3-2.6-1.8l-1.9,1.9c-0.3-0.1-0.6-0.3-0.9-0.4
		v-2.7c-1-0.3-2-0.5-3.1-0.6l-1,2.5c-0.2,0-0.4,0-0.5,0c-0.2,0-0.3,0-0.5,0l-1-2.5c-1.1,0.1-2.1,0.3-3.1,0.6v2.7
		c-0.3,0.1-0.6,0.3-1,0.4l-1.9-1.9c-0.9,0.5-1.8,1.1-2.6,1.8l1.1,2.5c-0.3,0.2-0.5,0.5-0.7,0.7l-2.5-1.1c-0.7,0.8-1.3,1.7-1.8,2.6
		l1.9,1.9c-0.1,0.3-0.3,0.6-0.4,0.9h-2.7c-0.3,1-0.5,2-0.6,3.1l2.5,1c0,0.2,0,0.4,0,0.5c0,0.2,0,0.3,0,0.5l-2.5,1
		c0.1,1.1,0.3,2.1,0.6,3.1h2.7c0.1,0.3,0.3,0.6,0.4,1l-1.9,1.9c0.5,0.9,1.1,1.8,1.8,2.6l2.5-1.1c0.2,0.3,0.5,0.5,0.7,0.7l-1.1,2.5
		c0.8,0.7,1.7,1.3,2.6,1.8l1.9-1.9c0.3,0.1,0.6,0.3,0.9,0.4v2.7c1,0.3,2,0.5,3.1,0.6l1-2.5c0.2,0,0.4,0,0.5,0c0.2,0,0.3,0,0.5,0
		l1,2.5c1.1-0.1,2.1-0.3,3.1-0.6v-2.7c0.3-0.1,0.6-0.3,1-0.4l1.9,1.9c0.9-0.5,1.8-1.1,2.6-1.8l-1.1-2.5c0.3-0.2,0.5-0.5,0.7-0.7
		l2.5,1.1c0.7-0.8,1.3-1.7,1.8-2.6l-1.9-1.9c0.1-0.3,0.3-0.6,0.4-0.9h2.7c0.3-1,0.5-2,0.6-3.1l-2.5-1
		C-185.1,564.1-185.1,564-185.1,563.8z M-198.6,574.6c-6,0-10.8-4.9-10.8-10.8c0-6,4.9-10.8,10.8-10.8c6,0,10.8,4.9,10.8,10.8
		S-192.6,574.6-198.6,574.6z"/>
	<path class="st1" d="M-185.5,535.1c0-0.1,0-0.3,0-0.4l1.9-0.8c-0.1-0.8-0.2-1.6-0.5-2.4h-2.1c-0.1-0.2-0.2-0.5-0.3-0.7l1.5-1.4
		c-0.4-0.7-0.8-1.4-1.3-2l-1.9,0.8c-0.2-0.2-0.4-0.4-0.6-0.6l0.8-1.9c-0.6-0.5-1.3-1-2-1.3l-1.5,1.5c-0.2-0.1-0.5-0.2-0.7-0.3v-2.1
		c-0.8-0.2-1.5-0.4-2.4-0.5l-0.8,1.9c-0.1,0-0.3,0-0.4,0c-0.1,0-0.3,0-0.4,0l-0.8-1.9c-0.8,0.1-1.6,0.2-2.4,0.5v2.1
		c-0.2,0.1-0.5,0.2-0.7,0.3l-1.4-1.5c-0.7,0.4-1.4,0.8-2,1.3l0.8,1.9c-0.2,0.2-0.4,0.4-0.6,0.6l-1.9-0.8c-0.5,0.6-1,1.3-1.3,2
		l1.5,1.5c-0.1,0.2-0.2,0.5-0.3,0.7h-2.1c-0.2,0.8-0.4,1.5-0.5,2.4l1.9,0.8c0,0.1,0,0.3,0,0.4s0,0.3,0,0.4l-1.9,0.8
		c0.1,0.8,0.2,1.6,0.5,2.4h2.1c0.1,0.2,0.2,0.5,0.3,0.7l-1.5,1.4c0.4,0.7,0.8,1.4,1.3,2l1.9-0.8c0.2,0.2,0.4,0.4,0.6,0.6l-0.8,1.9
		c0.6,0.5,1.3,1,2,1.3l1.5-1.5c0.2,0.1,0.5,0.2,0.7,0.3v2.1c0.8,0.2,1.5,0.4,2.4,0.5l0.8-1.9c0.1,0,0.3,0,0.4,0s0.3,0,0.4,0l0.8,1.9
		c0.8-0.1,1.6-0.2,2.4-0.5v-2.1c0.2-0.1,0.5-0.2,0.7-0.3l1.4,1.5c0.7-0.4,1.4-0.8,2-1.3l-0.8-1.9c0.2-0.2,0.4-0.4,0.6-0.6l1.9,0.8
		c0.5-0.6,1-1.3,1.3-2l-1.5-1.5c0.1-0.2,0.2-0.5,0.3-0.7h2.1c0.2-0.8,0.4-1.5,0.5-2.4l-1.9-0.8
		C-185.5,535.4-185.5,535.3-185.5,535.1z M-195.7,543.4c-4.6,0-8.3-3.8-8.3-8.3c0-4.6,3.8-8.3,8.3-8.3c4.6,0,8.3,3.8,8.3,8.3
		C-187.4,539.7-191.2,543.4-195.7,543.4z"/>
	<path class="st1" d="M-201.6,518.4c0-0.1,0-0.2,0-0.3l1.3-0.5c-0.1-0.6-0.2-1.1-0.3-1.6h-1.4c-0.1-0.2-0.1-0.3-0.2-0.5l1-1
		c-0.3-0.5-0.6-0.9-0.9-1.4l-1.3,0.5c-0.1-0.1-0.2-0.3-0.4-0.4l0.6-1.3c-0.4-0.4-0.9-0.7-1.4-0.9l-1,1c-0.2-0.1-0.3-0.1-0.5-0.2
		v-1.4c-0.5-0.2-1.1-0.3-1.6-0.3l-0.5,1.3c-0.1,0-0.2,0-0.3,0c-0.1,0-0.2,0-0.3,0l-0.5-1.3c-0.6,0.1-1.1,0.2-1.6,0.3v1.4
		c-0.2,0.1-0.3,0.1-0.5,0.2l-1-1c-0.5,0.3-0.9,0.6-1.4,0.9l0.5,1.3c-0.1,0.1-0.3,0.2-0.4,0.4l-1.3-0.6c-0.4,0.4-0.7,0.9-0.9,1.4l1,1
		c-0.1,0.2-0.1,0.3-0.2,0.5h-1.4c-0.2,0.5-0.3,1.1-0.3,1.6l1.3,0.5c0,0.1,0,0.2,0,0.3c0,0.1,0,0.2,0,0.3l-1.3,0.5
		c0.1,0.6,0.2,1.1,0.3,1.6h1.4c0.1,0.2,0.1,0.3,0.2,0.5l-1,1c0.3,0.5,0.6,0.9,0.9,1.4l1.3-0.5c0.1,0.1,0.2,0.3,0.4,0.4l-0.6,1.3
		c0.4,0.4,0.9,0.7,1.4,0.9l1-1c0.2,0.1,0.3,0.1,0.5,0.2v1.4c0.5,0.2,1.1,0.3,1.6,0.3l0.5-1.3c0.1,0,0.2,0,0.3,0c0.1,0,0.2,0,0.3,0
		l0.5,1.3c0.6-0.1,1.1-0.2,1.6-0.3V525c0.2-0.1,0.3-0.1,0.5-0.2l1,1c0.5-0.3,0.9-0.6,1.4-0.9l-0.5-1.3c0.1-0.1,0.3-0.2,0.4-0.4
		l1.3,0.6c0.4-0.4,0.7-0.9,0.9-1.4l-1-1c0.1-0.2,0.1-0.3,0.2-0.5h1.4c0.2-0.5,0.3-1.1,0.3-1.6l-1.3-0.5
		C-201.6,518.6-201.6,518.5-201.6,518.4z M-208.6,524c-3.1,0-5.7-2.5-5.7-5.7c0-3.1,2.5-5.7,5.7-5.7c3.1,0,5.7,2.5,5.7,5.7
		C-202.9,521.5-205.5,524-208.6,524z"/>
</g>
<g>
	<path class="st0" d="M-169.3,507.4h68.1v23.3h-22.5v100.7h-23.8V530.7h-21.9V507.4z"/>
	<path class="st0" d="M-83.5,507.4h24.9c13.6,0,23.3,1.2,29.1,3.7c5.8,2.4,10.4,6.5,13.9,12.2c3.5,5.7,5.3,12.4,5.3,20.1
		c0,8.1-1.9,15-5.8,20.4c-3.9,5.5-9.7,9.6-17.6,12.4l29.2,55.1h-25.7l-27.7-52.5h-2.1v52.5h-23.5V507.4z M-60.1,555.9h7.4
		c7.5,0,12.6-1,15.4-3c2.8-2,4.2-5.2,4.2-9.8c0-2.7-0.7-5.1-2.1-7.1c-1.4-2-3.3-3.4-5.6-4.3c-2.3-0.9-6.6-1.3-12.9-1.3h-6.4V555.9z"
		/>
	<path class="st0" d="M52,507.4h23.8l47.4,124H98.9l-9.6-25.5H38.9l-10,25.5H4.5L52,507.4z M64.1,540.3l-16.5,42.6h33L64.1,540.3z"
		/>
	<path class="st0" d="M139.7,507.4H163v124h-23.3V507.4z"/>
	<path class="st0" d="M189.5,507.4H212l52.7,81.6v-81.6h23.5v124h-22.6L213,550.1v81.3h-23.5V507.4z"/>
</g>
<g>
	<path class="st0" d="M297,509.2h13.2v70H297V509.2z"/>
	<path class="st0" d="M325.3,509.2h12.8l30,46.1v-46.1h13.3v70h-12.8l-29.9-45.9v45.9h-13.3V509.2z"/>
	<path class="st0" d="M462,520.6l-9.4,9.3c-5.9-6.3-12.9-9.4-20.8-9.4c-6.9,0-12.7,2.3-17.3,6.9c-4.7,4.6-7,10.1-7,16.7
		c0,6.8,2.4,12.5,7.2,17.2c4.8,4.7,10.8,7,17.9,7c4.6,0,8.5-1,11.7-2.9c3.2-1.9,5.7-5,7.6-9.1h-20.3v-12.5h35.2l0.1,3
		c0,6.1-1.6,11.9-4.8,17.4c-3.2,5.5-7.3,9.7-12.3,12.6s-11,4.3-17.8,4.3c-7.3,0-13.8-1.6-19.4-4.7c-5.7-3.2-10.2-7.7-13.5-13.5
		c-3.3-5.8-5-12.1-5-18.9c0-9.3,3.1-17.3,9.2-24.2c7.3-8.2,16.7-12.2,28.4-12.2c6.1,0,11.8,1.1,17.1,3.4
		C453.3,512.7,457.7,516,462,520.6z"/>
</g>
<path id="STDIO" class="st0" d="M311.3,591.8c-1.1,0-2,0.3-2.9,1c-0.7,0.5-1.1,1.4-1.1,2c0,0.8,0.3,1.5,0.8,2.2
	c0.7,1,2.9,2.9,6.4,5.9c3.2,2.7,5.3,4.5,6,5.3c1.7,1.7,3,3.5,3.8,5c0.8,1.7,1.1,3.4,1.1,5.3c0,3.8-1.4,6.8-3.8,9.3
	c-2.6,2.4-6,3.7-10.1,3.7c-3.2,0-6-0.8-8.4-2.4c-2.4-1.7-4.5-4.1-6.1-7.5l7.2-4.4c2.2,4.1,4.7,6,7.5,6c1.5,0,2.7-0.4,3.8-1.4
	c1.1-1,1.5-1.9,1.5-3c0-1.1-0.4-2-1.1-3.2c-0.7-1.1-2.4-2.6-5-4.7c-4.9-4.1-8.1-7.2-9.6-9.4c-1.5-2.2-2.2-4.4-2.2-6.6
	c0-3.2,1.2-5.9,3.5-8.1c2.4-2.3,5.3-3.4,8.8-3.4c2.3,0,4.5,0.5,6.6,1.7c2,1.1,4.2,3,6.6,5.7l-6.4,5.7
	C315.9,593.3,313.6,591.8,311.3,591.8L311.3,591.8z M346,593.1v37h-8.7v-37h-8.1v-8.6h25v8.6H346L346,593.1z M394.4,617.6
	c-1.1,3-2.7,5.4-4.7,7.3s-4.2,3.2-6.6,4.1c-2.4,0.8-6.6,1.1-12.4,1.1h-10.3v-45.5h10.2c6.6,0,11.5,0.8,14.7,2.4
	c3.2,1.6,5.9,4.4,7.9,8.1s3.2,8.1,3.2,13C396.2,611.5,395.6,614.8,394.4,617.6L394.4,617.6z M383.4,596.5c-2.4-2.4-6.4-3.5-11.7-3.5
	h-3v28.7h3.9c3.9,0,6.8-0.4,8.6-1.4c1.7-1,3.2-2.4,4.4-4.6c1.1-2.2,1.7-4.7,1.7-7.9C387.5,602.9,386.1,599.1,383.4,596.5
	L383.4,596.5z M403.8,630.1v-45.6h8.6v45.6H403.8L403.8,630.1z M460.1,624.3c-4.5,4.6-10.1,6.9-16.6,6.9c-6.8,0-12.5-2.3-17-7.1
	c-4.5-4.7-6.8-10.3-6.8-16.9c0-4.4,1.1-8.3,3.2-12c2-3.7,5-6.6,8.7-8.7c3.7-2.2,7.6-3.2,11.8-3.2c6.4,0,12,2.3,16.6,6.9
	s6.9,10.3,6.9,17.1C467.1,614.1,464.7,619.8,460.1,624.3L460.1,624.3z M454,596.4c-2.9-3-6.4-4.5-10.6-4.5s-7.8,1.5-10.6,4.4
	c-2.9,3-4.4,6.6-4.4,11.2c0,5,1.7,9,5.4,12c2.9,2.3,6,3.4,9.6,3.4c4.1,0,7.6-1.5,10.5-4.5s4.4-6.6,4.4-11
	C458.3,603.1,456.9,599.4,454,596.4L454,596.4z"/>
</svg>
