<?xml version="1.0" encoding="utf-8"?>
<!-- Generator: Adobe Illustrator 21.1.0, SVG Export Plug-In . SVG Version: 6.00 Build 0)  -->
<svg version="1.1" id="Layer_2" xmlns="http://www.w3.org/2000/svg" xmlns:xlink="http://www.w3.org/1999/xlink" x="0px" y="0px"
	 viewBox="0 0 512 241.1" style="enable-background:new 0 0 512 241.1;" xml:space="preserve">
<style type="text/css">
	.st0{fill:#FF8800;}
	.st1{fill:#FFB300;}
</style>
<g>
	<path class="st0" d="M14.4,93.6C6.6,104.6,0,125.8,0,144.4c0,53.4,43.3,96.7,96.7,96.7s96.7-43.3,96.7-96.7
		c0-30.3-14-57.4-35.9-75.2c0,0,19.5,25,20.5,39.7c1,14.7,2,29.4-11.1,32.4c-13.2,3-19.7-7.7-19.7-16.2s2-26.3-9.1-29.8
		c-11.1-3.5-13.2,3.5-13.2,3.5s15.2-3.5,14.7,9.1c-0.5,12.7-14.2,17.7-16.2,5.1c0,0-6.1,6.7-5.6,14.5s13.7,14.9,13.7,31.1
		c0,16.2-8.7,18.5-15.7,19.2c-14.9,1.7-30.9-11.8-16.8-19.9c0,0-11.9-2.7-13.6,4.8c-1.7,7.6-9.6,5.1-10.6,1.5
		c-1-3.5,1.5-20.8-12.1-19.2c-13.7,1.5-11.6,7.3-6.1,10.3c5.6,2.9,3.5,15.1-6.1,16.6c-9.6,1.5-19.9-4.9-17.7-10.6
		c2.8-7.5,7.8-4.8,9.1-8c1.3-3.1,2.7-18.4-22.3-18.2c0,0,17.4,4.1,10.8,15.7c-4.2,7.4-16.6-1.3-18.7-11.5
		C6.3,111.8,15.2,92.5,14.4,93.6z"/>
</g>
<g>
	<path class="st1" d="M150.7,0c0,0-63.8-0.3-117.8,51.6c0,0-11.6-4.2-15.5-5.2c-3.9-1-6.2,1.2-6.2,1.2s-5.4-0.7-7.4-0.7
		c0,0,0.8,4.6,4.9,9.1c0,0-4.6,16.2,28.2,39.5s58,49.1,69.2,60.7c0,0-19.7-30.7-24.8-48.3s-2.5-38.7-2.5-38.7l5.6-3.2
		C84.2,66.1,102.1,22.8,150.7,0z"/>
	<path class="st0" d="M149,61.9c0,0-26.5-16.2-50.8-16.6c0,0-8.3,11.1-12.9,22l-5.3,2.9c0,0-0.9,10.8,0,15.7c0,0,5.7-4.4,10.1-6.9
		l-1-4.5l4.6,1.5c0,0,8.1-4.9,13.5-6.7l-0.4-2.3h4.9C111.6,67,120.2,61.4,149,61.9z"/>
</g>
<g>
	<path class="st0" d="M244.4,68.2l-8.5,7.5c-3-4.2-6.1-6.3-9.2-6.3c-1.5,0-2.8,0.4-3.7,1.2c-1,0.8-1.4,1.7-1.4,2.7c0,1,0.3,2,1,2.9
		c0.9,1.2,3.8,3.8,8.5,7.8c4.4,3.7,7.1,6,8,7c2.3,2.4,4,4.6,5,6.8c1,2.2,1.5,4.5,1.5,7.1c0,5-1.7,9.1-5.2,12.3
		c-3.4,3.2-7.9,4.9-13.4,4.9c-4.3,0-8.1-1.1-11.3-3.2c-3.2-2.1-5.9-5.4-8.2-10l9.7-5.8c2.9,5.4,6.3,8,10.1,8c2,0,3.6-0.6,5-1.7
		c1.3-1.2,2-2.5,2-4c0-1.4-0.5-2.7-1.5-4.1c-1-1.4-3.3-3.5-6.7-6.3c-6.6-5.4-10.9-9.5-12.8-12.5c-1.9-2.9-2.9-5.8-2.9-8.8
		c0-4.2,1.6-7.8,4.8-10.8c3.2-3,7.2-4.5,11.9-4.5c3,0,5.9,0.7,8.6,2.1C238.2,61.9,241.2,64.5,244.4,68.2z"/>
	<path class="st0" d="M250.4,60h33.5v11.4h-11v49.2h-11.7V71.3h-10.8V60z"/>
	<path class="st0" d="M291.9,60h13.7c8.8,0,15.4,1.1,19.6,3.3c4.3,2.2,7.8,5.7,10.6,10.6c2.8,4.9,4.2,10.7,4.2,17.2
		c0,4.7-0.8,9-2.3,12.9c-1.6,3.9-3.7,7.2-6.4,9.7c-2.7,2.6-5.7,4.4-8.9,5.4c-3.2,1-8.7,1.5-16.5,1.5h-13.9V60z M303.3,71.1v38.2h5.4
		c5.3,0,9.1-0.6,11.5-1.8c2.4-1.2,4.3-3.2,5.8-6.1c1.5-2.9,2.3-6.4,2.3-10.6c0-6.4-1.8-11.4-5.4-15c-3.2-3.2-8.4-4.8-15.6-4.8H303.3
		z"/>
	<path class="st0" d="M350.1,60h11.5v60.6h-11.5V60z"/>
	<path class="st0" d="M403.1,58.4c8.6,0,15.9,3.1,22.1,9.3c6.2,6.2,9.3,13.8,9.3,22.7c0,8.8-3,16.3-9.1,22.4
		c-6.1,6.1-13.5,9.2-22.2,9.2c-9.1,0-16.7-3.1-22.7-9.4c-6-6.3-9-13.8-9-22.4c0-5.8,1.4-11.1,4.2-16s6.7-8.7,11.6-11.6
		C392.2,59.9,397.5,58.4,403.1,58.4z M403,69.7c-5.6,0-10.3,2-14.1,5.8c-3.8,3.9-5.7,8.9-5.7,14.9c0,6.7,2.4,12,7.2,15.9
		c3.7,3,8,4.6,12.9,4.6c5.5,0,10.1-2,14-5.9c3.8-4,5.8-8.8,5.8-14.6c0-5.8-1.9-10.6-5.8-14.6C413.3,71.7,408.5,69.7,403,69.7z"/>
	<path class="st0" d="M238.9,179.7c0-2.8-0.8-5.1-2.4-7c-1.6-1.8-4.4-3.4-8.4-4.8c-5.7-1.7-10.1-4-13.1-6.8c-3-2.8-4.6-6.5-4.6-11
		c0-4.7,1.7-8.6,5.1-11.6c3.4-3,7.7-4.5,13.1-4.5c5.5,0,10,1.8,13.4,5.3c3.4,3.5,5,7.7,4.9,12.7l-0.1,0.2h-8c0-3.5-0.9-6.3-2.7-8.5
		c-1.8-2.2-4.3-3.3-7.6-3.3c-3.1,0-5.5,0.9-7.2,2.7c-1.7,1.8-2.5,4.2-2.5,7c0,2.6,0.9,4.7,2.7,6.4c1.8,1.7,4.8,3.3,9,4.8
		c5.5,1.7,9.6,4,12.5,7c2.9,2.9,4.3,6.7,4.3,11.4c0,4.9-1.7,8.8-5.1,11.7c-3.4,2.9-7.8,4.3-13.3,4.3c-5.4,0-10-1.6-14-4.8
		c-4-3.2-5.9-7.6-5.8-13.4l0.1-0.2h8c0,4.1,1.1,7.1,3.2,9.1c2.2,2,5,3,8.5,3c3.1,0,5.6-0.9,7.4-2.6C238,185,238.9,182.6,238.9,179.7
		z"/>
	<path class="st0" d="M253.5,169.7c0-5.9,1.5-10.8,4.6-14.6c3.1-3.8,7.3-5.7,12.7-5.7c5.4,0,9.6,1.9,12.7,5.7
		c3.1,3.8,4.7,8.7,4.7,14.6v5.7c0,6-1.5,10.8-4.6,14.6c-3.1,3.8-7.3,5.7-12.7,5.7c-5.4,0-9.7-1.9-12.7-5.7
		c-3.1-3.8-4.6-8.6-4.6-14.6V169.7z M261.9,175.4c0,4.1,0.7,7.4,2.2,10c1.5,2.6,3.7,3.9,6.8,3.9c3,0,5.2-1.3,6.7-3.9
		c1.5-2.6,2.2-6,2.2-10v-5.7c0-4-0.7-7.3-2.2-10c-1.5-2.6-3.7-3.9-6.7-3.9c-3,0-5.3,1.3-6.8,3.9c-1.5,2.6-2.2,5.9-2.2,10V175.4z"/>
	<path class="st0" d="M305.1,194.8h-8.4v-64.3h8.4V194.8z"/>
	<path class="st0" d="M338.7,188.8c-1.2,2.2-2.7,3.9-4.5,5.1c-1.8,1.2-4,1.8-6.3,1.8c-4,0-7.2-1.6-9.4-4.7
		c-2.3-3.1-3.4-7.9-3.4-14.5v-26.3h8.3v26.4c0,4.6,0.5,7.8,1.6,9.7c1.1,1.9,2.7,2.9,4.9,2.9c2.1,0,3.8-0.5,5.2-1.4
		c1.4-1,2.5-2.3,3.3-4.1v-33.4h8.4v44.6h-7.5L338.7,188.8z"/>
	<path class="st0" d="M366.8,139.1v11.1h7v6h-7v26.5c0,2.3,0.3,3.9,1,4.9c0.7,1,1.6,1.5,2.7,1.5c0.7,0,1.3,0,1.8-0.1
		c0.6-0.1,1.2-0.2,2-0.4l0.9,5.8c-0.9,0.4-2,0.7-3.2,0.9c-1.2,0.2-2.4,0.4-3.6,0.4c-3.2,0-5.6-1-7.4-3.1c-1.7-2.1-2.6-5.3-2.6-9.8
		v-26.5h-5.8v-6h5.8v-11.1H366.8z"/>
	<path class="st0" d="M390.9,138.5h-8.4v-8h8.4V138.5z M390.9,194.8h-8.4v-44.6h8.4V194.8z"/>
	<path class="st0" d="M399.4,169.7c0-5.9,1.5-10.8,4.6-14.6c3.1-3.8,7.3-5.7,12.7-5.7c5.4,0,9.6,1.9,12.7,5.7
		c3.1,3.8,4.7,8.7,4.7,14.6v5.7c0,6-1.5,10.8-4.6,14.6c-3.1,3.8-7.3,5.7-12.7,5.7c-5.4,0-9.7-1.9-12.7-5.7
		c-3.1-3.8-4.6-8.6-4.6-14.6V169.7z M407.8,175.4c0,4.1,0.7,7.4,2.2,10c1.5,2.6,3.7,3.9,6.8,3.9c3,0,5.2-1.3,6.7-3.9
		c1.5-2.6,2.2-6,2.2-10v-5.7c0-4-0.7-7.3-2.2-10c-1.5-2.6-3.7-3.9-6.7-3.9c-3,0-5.3,1.3-6.8,3.9c-1.5,2.6-2.2,5.9-2.2,10V175.4z"/>
	<path class="st0" d="M449.6,150.2l0.5,6.6c1.2-2.3,2.8-4.2,4.7-5.5c1.9-1.3,4-2,6.4-2c3.9,0,6.9,1.4,9.1,4.3
		c2.2,2.9,3.3,7.4,3.3,13.4v27.6h-8.4v-27.6c0-4.1-0.6-7.1-1.8-8.8c-1.2-1.7-3-2.6-5.4-2.6c-1.7,0-3.2,0.5-4.5,1.6
		c-1.3,1.1-2.4,2.5-3.2,4.3v33H442v-44.6H449.6z"/>
	<path class="st0" d="M503.8,183.6c0-1.7-0.6-3.2-1.7-4.4c-1.1-1.2-3.3-2.5-6.4-3.9c-4.6-1.8-8-3.7-10.2-5.7s-3.3-4.6-3.3-7.8
		c0-3.4,1.4-6.3,4.1-8.8c2.7-2.4,6.3-3.6,10.6-3.6c4.6,0,8.2,1.3,11,3.9s4,5.8,3.9,9.7l-0.1,0.2h-8c0-2.1-0.6-3.9-1.8-5.5
		c-1.2-1.5-2.8-2.3-5-2.3c-2.1,0-3.7,0.6-4.9,1.8c-1.2,1.2-1.8,2.6-1.8,4.2c0,1.7,0.5,3,1.5,4s3.2,2.3,6.5,3.9
		c4.7,1.7,8.1,3.6,10.4,5.7c2.3,2.1,3.4,4.9,3.4,8.2c0,3.7-1.4,6.7-4.2,9c-2.8,2.3-6.5,3.5-11,3.5c-4.9,0-8.8-1.4-11.6-4.2
		c-2.8-2.8-4.2-6-4-9.8l0.1-0.2h7.8c0.1,2.9,0.9,5,2.4,6.2c1.5,1.3,3.3,1.9,5.5,1.9c2.2,0,3.9-0.6,5.1-1.7
		C503.2,186.8,503.8,185.4,503.8,183.6z"/>
</g>
</svg>
